<svg xmlns="http://www.w3.org/2000/svg" width="64" height="64" viewBox="0 0 64 64" aria-hidden="true" focusable="false">
  <g fill="none" stroke="#ff9933" stroke-width="2">
    <!-- sun -->
    <circle cx="18" cy="18" r="8" fill="#ffcc66" stroke="#ff9933"/>
    <!-- sun rays -->
    <path d="M18 6 L18 2" />
    <path d="M18 34 L18 38" />
    <path d="M6 18 L2 18" />
    <path d="M34 18 L38 18" />
    <path d="M10 10 L7 7" />
    <path d="M28 28 L31 31" />
    <path d="M10 26 L7 29" />
    <path d="M26 10 L29 7" />
    <!-- cloud -->
    <path d="M46 36c-1-6-7-10-13-8-1-4-5-7-9-7-5 0-9 4-9 9" fill="#fff" stroke="#ff9933"/>
    <path d="M44 44H22c-3 0-5-2-5-5 0-3 2-5 5-5h1" fill="#fff" stroke="#ff9933"/>
  </g>
</svg>
